<svg width="198" height="60" viewBox="0 0 198 60" fill="none" xmlns="http://www.w3.org/2000/svg">
<rect width="198" height="60" fill="#BAEF00"/>
<path d="M58.4491 37.4184V22.4887H64.181C65.3453 22.4887 66.2822 22.6368 66.9918 22.9397C67.6945 23.2426 68.2457 23.707 68.6452 24.333C69.0448 24.959 69.2446 25.6187 69.2446 26.3053C69.2446 26.9447 69.0655 27.5438 68.7141 28.1092C68.3628 28.6746 67.8254 29.1256 67.1089 29.4756C68.0321 29.7381 68.7417 30.1891 69.2377 30.8286C69.7338 31.468 69.9818 32.2219 69.9818 33.0902C69.9818 33.7903 69.8302 34.4365 69.5271 35.0423C69.2239 35.6481 68.8519 36.1058 68.4041 36.4289C67.9563 36.752 67.4052 37.001 66.73 37.1693C66.0618 37.3376 65.235 37.4184 64.2637 37.4184H58.4491ZM60.4677 28.7621H63.7676C64.6632 28.7621 65.3039 28.7015 65.6966 28.5871C66.2133 28.439 66.5991 28.19 66.8609 27.8467C67.1227 27.5034 67.2536 27.0659 67.2536 26.5408C67.2536 26.0427 67.1296 25.612 66.8885 25.235C66.6473 24.8581 66.296 24.6023 65.8482 24.4609C65.3935 24.3196 64.6219 24.2523 63.5265 24.2523H60.4745V28.7621H60.4677ZM60.4677 35.6548H64.2705C64.925 35.6548 65.3797 35.6279 65.6484 35.5808C66.1169 35.5 66.5027 35.3654 66.8127 35.1769C67.1227 34.9884 67.3845 34.7124 67.5843 34.349C67.7841 33.9855 67.8874 33.5682 67.8874 33.0902C67.8874 32.5316 67.7427 32.0469 67.4465 31.6363C67.1572 31.2257 66.7507 30.9363 66.234 30.768C65.7173 30.5997 64.9733 30.5189 64.0019 30.5189H60.4677V35.6548Z" fill="#263238"/>
<path d="M73.02 37.4184V22.4887H84.0635V24.2523H75.0454V28.8227H83.4986V30.5728H75.0454V35.6548H84.4217V37.4184H73.02Z" fill="#263238"/>
<path d="M88.5415 22.4887H98.1038V37.4116H96.0853V24.2523H90.56V31.9392C90.56 33.5008 90.4843 34.6451 90.3327 35.3721C90.1811 36.0991 89.8711 36.6645 89.3889 37.0683C88.9066 37.4722 88.3004 37.6741 87.5632 37.6741C87.1154 37.6741 86.5849 37.5934 85.958 37.4318L86.3025 35.6817C86.6332 35.8163 86.9225 35.8837 87.1567 35.8837C87.6183 35.8837 87.9559 35.7154 88.1901 35.3788C88.4175 35.0423 88.5346 34.248 88.5346 33.0027V22.4887H88.5415Z" fill="#263238"/>
<path d="M101.032 30.1488C101.032 27.6717 101.714 25.7331 103.071 24.3331C104.435 22.933 106.192 22.2329 108.341 22.2329C109.754 22.2329 111.021 22.5628 112.158 23.2224C113.288 23.8821 114.156 24.7975 114.748 25.9754C115.341 27.1534 115.637 28.4862 115.637 29.9805C115.637 31.495 115.327 32.8479 114.7 34.0393C114.073 35.2308 113.191 36.1395 112.041 36.752C110.897 37.3645 109.657 37.6742 108.334 37.6742C106.895 37.6742 105.613 37.3376 104.476 36.6578C103.347 35.9779 102.485 35.0557 101.9 33.8778C101.321 32.6999 101.032 31.4613 101.032 30.1488ZM103.112 30.1757C103.112 31.9729 103.608 33.3932 104.6 34.423C105.593 35.4596 106.833 35.9779 108.328 35.9779C109.85 35.9779 111.104 35.4529 112.082 34.4096C113.067 33.3662 113.557 31.8787 113.557 29.9603C113.557 28.7487 113.343 27.6852 112.923 26.7765C112.502 25.8678 111.889 25.1677 111.076 24.6696C110.27 24.1715 109.361 23.9225 108.348 23.9225C106.915 23.9225 105.689 24.4004 104.656 25.3629C103.629 26.3255 103.112 27.9342 103.112 30.1757Z" fill="#263238"/>
<path d="M117.773 32.6191L119.681 32.4575C119.771 33.2047 119.984 33.8172 120.315 34.2951C120.646 34.773 121.155 35.1634 121.851 35.4529C122.547 35.7491 123.326 35.8971 124.194 35.8971C124.965 35.8971 125.647 35.7827 126.233 35.5606C126.825 35.3385 127.259 35.0288 127.549 34.6384C127.838 34.248 127.983 33.824 127.983 33.3595C127.983 32.8883 127.845 32.4845 127.569 32.1344C127.294 31.7844 126.832 31.4882 126.191 31.2527C125.778 31.0978 124.876 30.8555 123.47 30.5257C122.065 30.1959 121.087 29.8862 120.522 29.5968C119.791 29.2266 119.247 28.7621 118.889 28.2102C118.531 27.6582 118.351 27.039 118.351 26.3524C118.351 25.5985 118.572 24.8917 119.006 24.2388C119.447 23.5859 120.081 23.0878 120.921 22.7445C121.762 22.4079 122.699 22.2329 123.725 22.2329C124.855 22.2329 125.854 22.408 126.722 22.7647C127.59 23.1215 128.251 23.6465 128.72 24.3398C129.188 25.0331 129.436 25.8139 129.471 26.689L127.535 26.8303C127.432 25.8879 127.08 25.1744 126.474 24.6898C125.875 24.2052 124.986 23.9696 123.815 23.9696C122.595 23.9696 121.7 24.1917 121.142 24.6292C120.584 25.0667 120.301 25.5918 120.301 26.211C120.301 26.7495 120.501 27.1871 120.894 27.5371C121.279 27.8804 122.299 28.2371 123.939 28.6006C125.578 28.9641 126.708 29.2804 127.321 29.5497C128.21 29.9535 128.865 30.4584 129.292 31.0709C129.712 31.6834 129.925 32.3902 129.925 33.1912C129.925 33.9855 129.691 34.7327 129.23 35.4394C128.761 36.1395 128.093 36.6914 127.225 37.0818C126.35 37.4722 125.372 37.6674 124.283 37.6674C122.898 37.6674 121.741 37.4722 120.811 37.0751C119.874 36.6847 119.144 36.0923 118.613 35.2981C118.076 34.5173 117.8 33.622 117.773 32.6191Z" fill="#263238"/>
<path d="M132.971 37.4184V22.4887H134.989V28.6208H142.932V22.4887H144.951V37.4116H142.932V30.3843H134.989V37.4184H132.971Z" fill="#263238"/>
<path d="M147.913 30.1488C147.913 27.6717 148.595 25.7331 149.953 24.3331C151.317 22.933 153.073 22.2329 155.223 22.2329C156.635 22.2329 157.903 22.5628 159.04 23.2224C160.169 23.8821 161.037 24.7975 161.63 25.9754C162.222 27.1534 162.519 28.4862 162.519 29.9805C162.519 31.495 162.209 32.8479 161.582 34.0393C160.955 35.2308 160.073 36.1395 158.922 36.752C157.779 37.3645 156.539 37.6742 155.216 37.6742C153.776 37.6742 152.495 37.3376 151.358 36.6578C150.228 35.9779 149.367 35.0557 148.781 33.8778C148.21 32.6999 147.913 31.4613 147.913 30.1488ZM150.001 30.1757C150.001 31.9729 150.497 33.3932 151.489 34.423C152.481 35.4596 153.721 35.9779 155.216 35.9779C156.739 35.9779 157.992 35.4529 158.971 34.4096C159.956 33.3662 160.445 31.8787 160.445 29.9603C160.445 28.7487 160.231 27.6852 159.811 26.7765C159.391 25.8678 158.778 25.1677 157.965 24.6696C157.159 24.1715 156.249 23.9225 155.237 23.9225C153.804 23.9225 152.577 24.4004 151.544 25.3629C150.518 26.3255 150.001 27.9342 150.001 30.1757Z" fill="#263238"/>
<path d="M165.343 37.4184V22.4887H171.103C172.116 22.4887 172.894 22.5358 173.424 22.6301C174.175 22.7512 174.802 22.9868 175.312 23.3301C175.822 23.6734 176.228 24.1513 176.538 24.7706C176.848 25.3898 177 26.0697 177 26.8034C177 28.0755 176.587 29.1458 175.76 30.0276C174.933 30.9094 173.438 31.3469 171.282 31.3469H167.362V37.4116H165.343V37.4184ZM167.362 29.5901H171.309C172.618 29.5901 173.542 29.3545 174.093 28.8766C174.644 28.3986 174.913 27.7323 174.913 26.8707C174.913 26.2447 174.754 25.7129 174.43 25.2687C174.107 24.8244 173.679 24.5282 173.156 24.3869C172.818 24.2994 172.184 24.2523 171.268 24.2523H167.362V29.5901Z" fill="#263238"/>
<rect x="41" y="23.2794" width="13" height="13" rx="6.5" stroke="#263238" stroke-width="2"/>
<rect x="24" y="23.2794" width="13" height="13" rx="6.5" stroke="#263238" stroke-width="2"/>
</svg>
